<svg width="28" height="28" viewBox="0 0 28 28" fill="none" xmlns="http://www.w3.org/2000/svg">
<path d="M27.4089 0.00244225C21.9464 -0.0954973 15.7168 2.75991 11.7735 7.18934C8.00521 7.26046 4.33597 8.80534 1.63447 11.5068C1.47707 11.6619 1.4211 11.8939 1.48989 12.1038C1.55985 12.3148 1.74174 12.4676 1.96094 12.4991L6.4545 13.1427L5.89951 13.7641C5.69313 13.995 5.70363 14.3459 5.92283 14.5651L13.4164 22.0587C13.5295 22.1718 13.6787 22.2289 13.8291 22.2289C13.9679 22.2289 14.1066 22.1799 14.2174 22.0808L14.8388 21.5258L15.4824 26.0194C15.5139 26.2386 15.6865 26.3995 15.8952 26.4694C15.9488 26.4869 16.0048 26.4951 16.0619 26.4951C16.2275 26.4951 16.3965 26.4228 16.5131 26.3074C19.1773 23.6432 20.7222 19.974 20.7933 16.2056C25.2274 12.2542 28.1061 6.02689 27.9791 0.571425C27.9709 0.261283 27.7202 0.0106039 27.4089 0.00244225ZM22.0362 10.0669C21.4684 10.6347 20.7222 10.9192 19.9748 10.9192C19.2275 10.9192 18.4812 10.6347 17.9134 10.0669C16.7778 8.9301 16.7778 7.08091 17.9134 5.94411C19.0502 4.80731 20.8994 4.80731 22.0362 5.94411C23.173 7.08091 23.173 8.93127 22.0362 10.0669Z" fill="#313D49"/>
<path d="M3.17611 19.709C1.92854 20.9566 0.215767 26.5928 0.0245518 27.2306C-0.0372434 27.4358 0.019888 27.6585 0.170295 27.8101C0.282226 27.922 0.430302 27.9814 0.583041 27.9814C0.639006 27.9814 0.694972 27.9733 0.750937 27.957C1.38871 27.7657 7.0249 26.053 8.27246 24.8054C9.67743 23.4004 9.67743 21.114 8.27246 19.709C6.86633 18.3041 4.58107 18.3052 3.17611 19.709Z" fill="#313D49"/>
</svg>
