<svg width="100" height="100" viewBox="0 0 100 100" fill="none" xmlns="http://www.w3.org/2000/svg">
<g id="_x30_8_Engineer">
<g id="Group">
<path id="Vector" d="M81.2561 28.662C81.2561 28.3684 81.2204 28.0728 81.1458 27.7816C78.8136 18.6219 72.5647 11.1394 64.2861 7.0254V14.2858C64.2861 16.2581 62.6887 17.8572 60.7146 17.8572C58.7406 17.8572 57.1432 16.2581 57.1432 14.2858V4.57417V3.57145C57.1432 1.59891 55.5443 0 53.5717 0H46.4288C44.4563 0 42.8574 1.59891 42.8574 3.57145V4.57374V14.2858C42.8574 16.2581 41.2583 17.8572 39.286 17.8572C37.3136 17.8572 35.7145 16.2581 35.7145 14.2858V7.0254C27.4342 11.1392 21.1852 18.6219 18.853 27.7816C18.7789 28.073 18.7525 28.3678 18.7663 28.6599C16.2272 29.0803 14.2858 31.2704 14.2858 33.9287C14.2858 36.8874 16.6843 39.2859 19.643 39.2859H80.3576C83.3163 39.2859 85.7148 36.8874 85.7148 33.9287C85.7148 31.2778 83.7847 29.0912 81.2561 28.662Z" fill="#E5E7EA"/>
<path id="Vector_2" d="M75.0004 46.4288H25.0002V50.0002C25.0002 56.8183 27.75 63.0015 32.191 67.5161C32.1797 67.6312 32.1431 67.7402 32.1431 67.8575V73.8701L49.9114 81.7666L67.8575 72.7928V67.8575C67.8575 67.74 67.8209 67.6308 67.8096 67.5155C72.2503 63.0008 75.0004 56.8179 75.0004 50.0002V46.4288Z" fill="#E5E7EA"/>
<g id="Group_2">
<path id="Vector_3" d="M28.5716 100H71.429V78.9938L51.5977 88.9095C51.0955 89.1606 50.5479 89.2862 50.0003 89.2862C49.5068 89.2862 49.0115 89.1833 48.5494 88.9775L28.5716 80.0986V100Z" fill="#E5E7EA"/>
<path id="Vector_4" d="M21.4287 78.972C12.9239 81.5772 5.54054 87.0355 0.599941 94.448C-0.13074 95.5432 -0.198751 96.9522 0.422066 98.1136C1.04463 99.2751 2.25487 100.001 3.5715 100.001H21.4287V78.972Z" fill="#E5E7EA"/>
<path id="Vector_5" d="M99.4007 94.448C94.4605 87.0359 87.0776 81.5778 78.5719 78.9725V100H96.4291C97.7475 100 98.9577 99.275 99.5785 98.1136C100.199 96.9522 100.13 95.5432 99.4007 94.448Z" fill="#E5E7EA"/>
</g>
</g>
</g>
</svg>
