<svg width="100" height="100" viewBox="0 0 100 100" fill="none" xmlns="http://www.w3.org/2000/svg">
<g id="Frame 36896">
<rect width="100" height="100" fill="white"/>
<g id="Group 36891">
<path id="Vector" d="M19.4232 63.3866C18.615 64.1668 17.699 64.8268 16.7032 65.3466L20.4832 70.9783C21.0383 71.8016 21.3343 72.7721 21.3332 73.765V93.3333H24.6666V71.6666C24.6678 71.3077 24.5552 70.9575 24.3449 70.6666L19.4232 63.3866Z" fill="#E5E7EA"/>
<path id="Vector_2" d="M75.0133 70.6333C74.7902 70.9318 74.6687 71.294 74.6666 71.6666V93.3333H78V73.765C77.9989 72.7713 78.2956 71.8001 78.8516 70.9766L82.63 65.3466C81.6342 64.8268 80.7182 64.1668 79.91 63.3866L75.0133 70.6333Z" fill="#E5E7EA"/>
<path id="Vector_3" d="M88 63.3333C92.6023 63.3333 96.3333 59.6024 96.3333 55C96.3333 50.3976 92.6023 46.6667 88 46.6667C83.3976 46.6667 79.6666 50.3976 79.6666 55C79.6666 59.6024 83.3976 63.3333 88 63.3333Z" fill="#E5E7EA"/>
<path id="Vector_4" d="M51.3333 19.8667C50.2293 20.0444 49.104 20.0444 48 19.8667V93.3333H51.3333V19.8667Z" fill="#E5E7EA"/>
<path id="Vector_5" d="M49.6666 16.6667C54.269 16.6667 57.9999 12.9357 57.9999 8.33333C57.9999 3.73096 54.269 0 49.6666 0C45.0642 0 41.3333 3.73096 41.3333 8.33333C41.3333 12.9357 45.0642 16.6667 49.6666 16.6667Z" fill="#E5E7EA"/>
<path id="Vector_6" d="M61.6666 45.6666C61.4529 45.9566 61.3363 46.3065 61.3333 46.6666V93.3333H64.6666V48.8083C64.6646 47.7739 64.9857 46.7648 65.5849 45.9216L74.2516 33.6583C73.2592 33.1352 72.3471 32.4723 71.5433 31.69L61.6666 45.6666Z" fill="#E5E7EA"/>
<path id="Vector_7" d="M79.6666 31.6666C84.269 31.6666 87.9999 27.9357 87.9999 23.3333C87.9999 18.7309 84.269 15 79.6666 15C75.0642 15 71.3333 18.7309 71.3333 23.3333C71.3333 27.9357 75.0642 31.6666 79.6666 31.6666Z" fill="#E5E7EA"/>
<path id="Vector_8" d="M19.6666 31.6666C24.269 31.6666 27.9999 27.9357 27.9999 23.3333C27.9999 18.7309 24.269 15 19.6666 15C15.0642 15 11.3333 18.7309 11.3333 23.3333C11.3333 27.9357 15.0642 31.6666 19.6666 31.6666Z" fill="#E5E7EA"/>
<path id="Vector_9" d="M34.6667 48.8083V93.3333H38V46.6667C38.0013 46.3077 37.8886 45.9576 37.6783 45.6667L27.79 31.6867C26.9866 32.4728 26.0745 33.1396 25.0817 33.6667L33.7483 45.9317C34.3462 46.7717 34.6672 47.7773 34.6667 48.8083Z" fill="#E5E7EA"/>
<path id="Vector_10" d="M11.3333 63.3333C15.9357 63.3333 19.6667 59.6024 19.6667 55C19.6667 50.3976 15.9357 46.6667 11.3333 46.6667C6.73096 46.6667 3 50.3976 3 55C3 59.6024 6.73096 63.3333 11.3333 63.3333Z" fill="#E5E7EA"/>
</g>
</g>
</svg>
