<svg width="100" height="100" viewBox="0 0 100 100" fill="none" xmlns="http://www.w3.org/2000/svg">
<g id="_x30_8_Engineer">
<g id="Group">
<path id="Vector" d="M81.2559 28.662C81.2559 28.3684 81.2202 28.0728 81.1456 27.7816C78.8134 18.6219 72.5645 11.1394 64.2859 7.0254V14.2858C64.2859 16.2581 62.6885 17.8572 60.7144 17.8572C58.7404 17.8572 57.143 16.2581 57.143 14.2858V4.57417V3.57145C57.143 1.59891 55.5441 0 53.5716 0H46.4287C44.4561 0 42.8572 1.59891 42.8572 3.57145V4.57374V14.2858C42.8572 16.2581 41.2581 17.8572 39.2858 17.8572C37.3134 17.8572 35.7143 16.2581 35.7143 14.2858V7.0254C27.434 11.1392 21.185 18.6219 18.8528 27.7816C18.7787 28.073 18.7524 28.3678 18.7661 28.6599C16.227 29.0803 14.2856 31.2704 14.2856 33.9287C14.2856 36.8874 16.6841 39.2859 19.6428 39.2859H80.3574C83.3161 39.2859 85.7146 36.8874 85.7146 33.9287C85.7146 31.2778 83.7845 29.0912 81.2559 28.662Z" fill="#E5E7EA"/>
<path id="Vector_2" d="M75.0002 46.4287H25V50.0002C25 56.8183 27.7499 63.0014 32.1908 67.516C32.1795 67.6311 32.1429 67.7401 32.1429 67.8574V73.87L49.9112 81.7665L67.8574 72.7928V67.8574C67.8574 67.7399 67.8207 67.6307 67.8094 67.5154C72.2502 63.0007 75.0002 56.8178 75.0002 50.0002V46.4287Z" fill="#E5E7EA"/>
<g id="Group_2">
<path id="Vector_3" d="M28.5718 100.001H71.4291V78.9941L51.5978 88.9098C51.0956 89.1609 50.548 89.2865 50.0005 89.2865C49.5069 89.2865 49.0117 89.1836 48.5496 88.9778L28.5718 80.0989V100.001Z" fill="#E5E7EA"/>
<path id="Vector_4" d="M21.4287 78.9722C12.9239 81.5773 5.54054 87.0356 0.599941 94.4481C-0.13074 95.5433 -0.198751 96.9523 0.422066 98.1138C1.04463 99.2752 2.25487 100.001 3.5715 100.001H21.4287V78.9722Z" fill="#E5E7EA"/>
<path id="Vector_5" d="M99.4006 94.4482C94.4604 87.0361 87.0775 81.578 78.5718 78.9727V100.001H96.429C97.7474 100.001 98.9576 99.2752 99.5784 98.1138C100.199 96.9524 100.13 95.5433 99.4006 94.4482Z" fill="#E5E7EA"/>
</g>
</g>
</g>
</svg>
