<svg width="100" height="100" viewBox="0 0 100 100" fill="none" xmlns="http://www.w3.org/2000/svg">
<path id="Subtract" fill-rule="evenodd" clip-rule="evenodd" d="M50 100C77.6142 100 100 77.6142 100 50C100 22.3858 77.6142 0 50 0C22.3858 0 0 22.3858 0 50C0 77.6142 22.3858 100 50 100ZM59.7521 16.5344C59.0798 21.3188 54.9698 25 50 25C45.0302 25 40.9202 21.3188 40.2479 16.5344C28.8425 19.8523 19.8523 28.8426 16.5344 40.2478C21.3188 40.9201 25 45.0302 25 50C25 54.9698 21.3188 59.0799 16.5344 59.7522C19.8523 71.1574 28.8425 80.1477 40.2479 83.4656C40.9202 78.6812 45.0302 75 50 75C54.9698 75 59.0798 78.6812 59.7521 83.4656C71.1575 80.1477 80.1477 71.1574 83.4656 59.7522C78.6812 59.0799 75 54.9698 75 50C75 45.0302 78.6812 40.9201 83.4656 40.2478C80.1477 28.8426 71.1575 19.8523 59.7521 16.5344Z" fill="#E5E7EA"/>
</svg>
