<svg width="100" height="100" viewBox="0 0 100 100" fill="none" xmlns="http://www.w3.org/2000/svg">
<g id="Frame 36896">
<rect width="100" height="100" fill="none"/>
<g id="Group 36891">
<path id="Vector" d="M19.4231 63.3867C18.6149 64.1668 17.6989 64.8269 16.7031 65.3467L20.4831 70.9784C21.0382 71.8016 21.3342 72.7722 21.3331 73.765V93.3334H24.6665V71.6667C24.6677 71.3077 24.5551 70.9576 24.3448 70.6667L19.4231 63.3867Z" fill="#E5E7EA"/>
<path id="Vector_2" d="M75.0132 70.6334C74.79 70.9319 74.6685 71.2941 74.6665 71.6667V93.3334H77.9998V73.765C77.9988 72.7714 78.2954 71.8002 78.8515 70.9767L82.6298 65.3467C81.634 64.8269 80.718 64.1668 79.9098 63.3867L75.0132 70.6334Z" fill="#E5E7EA"/>
<path id="Vector_3" d="M87.9998 63.3332C92.6022 63.3332 96.3332 59.6022 96.3332 54.9998C96.3332 50.3975 92.6022 46.6665 87.9998 46.6665C83.3975 46.6665 79.6665 50.3975 79.6665 54.9998C79.6665 59.6022 83.3975 63.3332 87.9998 63.3332Z" fill="#E5E7EA"/>
<path id="Vector_4" d="M51.3333 19.8667C50.2293 20.0445 49.104 20.0445 48 19.8667V93.3334H51.3333V19.8667Z" fill="#E5E7EA"/>
<path id="Vector_5" d="M49.6666 16.6667C54.269 16.6667 57.9999 12.9357 57.9999 8.33333C57.9999 3.73096 54.269 0 49.6666 0C45.0642 0 41.3333 3.73096 41.3333 8.33333C41.3333 12.9357 45.0642 16.6667 49.6666 16.6667Z" fill="#E5E7EA"/>
<path id="Vector_6" d="M61.6666 45.6666C61.4529 45.9565 61.3363 46.3065 61.3333 46.6666V93.3333H64.6666V48.8083C64.6646 47.7739 64.9857 46.7647 65.5849 45.9216L74.2516 33.6583C73.2592 33.1352 72.3471 32.4723 71.5433 31.6899L61.6666 45.6666Z" fill="#E5E7EA"/>
<path id="Vector_7" d="M79.6666 31.6667C84.269 31.6667 87.9999 27.9357 87.9999 23.3333C87.9999 18.731 84.269 15 79.6666 15C75.0642 15 71.3333 18.731 71.3333 23.3333C71.3333 27.9357 75.0642 31.6667 79.6666 31.6667Z" fill="#E5E7EA"/>
<path id="Vector_8" d="M19.6666 31.6667C24.269 31.6667 27.9999 27.9357 27.9999 23.3333C27.9999 18.731 24.269 15 19.6666 15C15.0642 15 11.3333 18.731 11.3333 23.3333C11.3333 27.9357 15.0642 31.6667 19.6666 31.6667Z" fill="#E5E7EA"/>
<path id="Vector_9" d="M34.6665 48.8082V93.3332H37.9999V46.6665C38.0011 46.3076 37.8885 45.9574 37.6782 45.6665L27.7899 31.6865C26.9864 32.4727 26.0744 33.1395 25.0815 33.6665L33.7482 45.9315C34.3461 46.7716 34.6671 47.7771 34.6665 48.8082Z" fill="#E5E7EA"/>
<path id="Vector_10" d="M11.3333 63.3332C15.9357 63.3332 19.6667 59.6022 19.6667 54.9998C19.6667 50.3975 15.9357 46.6665 11.3333 46.6665C6.73096 46.6665 3 50.3975 3 54.9998C3 59.6022 6.73096 63.3332 11.3333 63.3332Z" fill="#E5E7EA"/>
</g>
</g>
</svg>
